<svg version="1.1" xmlns="http://www.w3.org/2000/svg" viewBox="0 0 208.7831607017522 657.0645091009258" width="208.7831607017522" height="657.0645091009258">
  <!-- svg-source:excalidraw -->
  
  <defs>
    <style class="style-fonts">
      @font-face {
        font-family: "Virgil";
        src: url("https://excalidraw.com/Virgil.woff2");
      }
      @font-face {
        font-family: "Cascadia";
        src: url("https://excalidraw.com/Cascadia.woff2");
      }
      @font-face {
        font-family: "Assistant";
        src: url("https://excalidraw.com/Assistant-Regular.woff2");
      }
    </style>
    
  </defs>
  <rect x="0" y="0" width="208.7831607017522" height="657.0645091009258" fill="#ffffff"></rect><g stroke-linecap="round" transform="translate(62.04285045806432 10) rotate(0 42.348729892812 31.326457728929412)"><path d="M2.32 5.99 C2.32 5.99, 2.32 5.99, 2.32 5.99 M2.32 5.99 C2.32 5.99, 2.32 5.99, 2.32 5.99 M0.74 13.9 C4.26 10.76, 5.79 7.57, 11.24 1.82 M0.74 13.9 C3.09 11.38, 6 7.35, 11.24 1.82 M0.48 20.29 C8.38 11.55, 11.14 7.54, 17.54 0.67 M0.48 20.29 C5.68 14.41, 10.74 8.51, 17.54 0.67 M0.88 25.94 C7.83 18.23, 14.91 7.09, 23.18 0.28 M0.88 25.94 C8.36 18.36, 14.91 10.8, 23.18 0.28 M0.61 32.33 C12.67 20.05, 22.64 6.35, 28.17 0.64 M0.61 32.33 C11.99 20.73, 21.53 6.96, 28.17 0.64 M1.01 37.98 C8.01 28.75, 17.68 20.43, 33.81 0.24 M1.01 37.98 C12.96 24.8, 24.05 11.57, 33.81 0.24 M0.75 44.37 C15.52 26.55, 28.38 11.43, 38.8 0.6 M0.75 44.37 C15.42 27.59, 30.91 9.65, 38.8 0.6 M0.49 50.77 C9.61 36.6, 22.56 26.8, 44.44 0.21 M0.49 50.77 C15.77 33.57, 30.75 17.02, 44.44 0.21 M2.19 54.91 C17.41 40.16, 29.01 22.48, 49.43 0.57 M2.19 54.91 C20.3 34.25, 36.03 14.08, 49.43 0.57 M3.9 59.04 C24.8 35.86, 44.66 11.26, 54.42 0.93 M3.9 59.04 C21.11 39.21, 36.98 20.93, 54.42 0.93 M7.57 60.91 C18.68 47.41, 31.28 33.65, 60.06 0.53 M7.57 60.91 C28.97 36.18, 49.41 12, 60.06 0.53 M11.9 62.02 C24.4 47.01, 38.07 32.52, 65.05 0.89 M11.9 62.02 C32.91 36.84, 54.44 12.87, 65.05 0.89 M16.24 63.14 C36.04 38.8, 58.34 12.74, 70.69 0.5 M16.24 63.14 C34.38 44.77, 51.28 23.56, 70.69 0.5 M21.22 63.5 C34.92 47.33, 45.94 34.12, 75.68 0.86 M21.22 63.5 C39.53 41.84, 57.85 20.27, 75.68 0.86 M26.87 63.1 C42.9 45.68, 54.17 31.61, 79.35 2.73 M26.87 63.1 C39.23 48.46, 50.43 35.14, 79.35 2.73 M31.85 63.46 C49.47 42.24, 67.26 22.07, 81.71 6.11 M31.85 63.46 C50.04 42.45, 67.41 23.8, 81.71 6.11 M37.5 63.07 C48.53 48.57, 58.56 39.1, 84.08 9.49 M37.5 63.07 C47.96 51.22, 57.34 38.93, 84.08 9.49 M42.48 63.43 C54.83 48.35, 64.61 37.88, 85.13 14.37 M42.48 63.43 C56.76 46.03, 71.61 30.04, 85.13 14.37 M48.13 63.04 C55.78 53, 63.19 42.74, 84.87 20.77 M48.13 63.04 C62.16 46.71, 76.87 31.64, 84.87 20.77 M53.11 63.4 C61.32 56.13, 66 46.76, 85.26 26.42 M53.11 63.4 C60.44 54.55, 68.3 47.07, 85.26 26.42 M58.76 63 C67.7 50.69, 80.8 38.23, 85 32.81 M58.76 63 C64.77 56.57, 72.28 48.27, 85 32.81 M63.74 63.36 C67.51 58.8, 74.74 51.02, 84.74 39.21 M63.74 63.36 C69.27 58.36, 73.68 52.73, 84.74 39.21 M69.39 62.97 C74.35 57.9, 81.64 49.45, 85.13 44.85 M69.39 62.97 C74.04 57.34, 79.21 52.01, 85.13 44.85 M75.69 61.82 C77.05 58.31, 80.38 56.79, 84.87 51.25 M75.69 61.82 C77.93 59.34, 79.2 57.8, 84.87 51.25" stroke="#ffc9c9" stroke-width="0.5" fill="none"></path><path d="M15.66 0 C30.48 -0.52, 48.18 1.11, 69.03 0 M15.66 0 C26.41 0.26, 38.66 -0.31, 69.03 0 M69.03 0 C80.11 1.93, 83.08 5.54, 84.7 15.66 M69.03 0 C78.35 -1.44, 84.27 4.5, 84.7 15.66 M84.7 15.66 C85.67 25.64, 84.67 39.92, 84.7 46.99 M84.7 15.66 C85.1 27.97, 85.11 41.39, 84.7 46.99 M84.7 46.99 C84.2 56.62, 80.12 62.12, 69.03 62.65 M84.7 46.99 C86.19 56.11, 80.26 63.83, 69.03 62.65 M69.03 62.65 C47.89 64.6, 27.53 64.33, 15.66 62.65 M69.03 62.65 C49.32 62, 31.42 62.94, 15.66 62.65 M15.66 62.65 C5.89 63.5, 0.27 58.13, 0 46.99 M15.66 62.65 C6.34 61.51, 1.41 58.41, 0 46.99 M0 46.99 C1.03 37.1, -0.76 29.35, 0 15.66 M0 46.99 C-0.73 34.33, 0.46 22.13, 0 15.66 M0 15.66 C-1.56 6.36, 3.87 -0.39, 15.66 0 M0 15.66 C0.25 6.85, 5.04 -1.1, 15.66 0" stroke="#e03131" stroke-width="1" fill="none"></path></g><g transform="translate(73.39158035087621 28.826457728929412) rotate(0 31 12.500000000000007)"><text x="31" y="0" font-family="Virgil, Segoe UI Emoji" font-size="20px" fill="#e03131" text-anchor="middle" style="white-space: pre;" direction="ltr" dominant-baseline="text-before-edge">Screen</text></g><g stroke-linecap="round" transform="translate(35.10340491936222 152.7754566791654) rotate(0 69.28817543151399 31.326457728929412)"><path d="M2.32 5.99 C2.32 5.99, 2.32 5.99, 2.32 5.99 M2.32 5.99 C2.32 5.99, 2.32 5.99, 2.32 5.99 M0.74 13.9 C3.35 9.51, 6.71 7.05, 11.24 1.82 M0.74 13.9 C4.68 9.14, 8.43 5.34, 11.24 1.82 M0.48 20.29 C6.04 14.17, 8.11 11.21, 17.54 0.67 M0.48 20.29 C6.57 14.58, 11.25 7.06, 17.54 0.67 M0.88 25.94 C9.5 18.12, 16.19 11.32, 23.18 0.28 M0.88 25.94 C7.83 17.3, 15.65 8.94, 23.18 0.28 M0.61 32.33 C7.8 23.42, 15.67 12.47, 28.17 0.64 M0.61 32.33 C7.53 22.8, 15.5 15.32, 28.17 0.64 M1.01 37.98 C13.47 26.04, 23.04 12.78, 33.81 0.24 M1.01 37.98 C8.6 29.08, 18.71 17.32, 33.81 0.24 M0.75 44.37 C14.04 30.63, 28.71 13.53, 38.8 0.6 M0.75 44.37 C13.58 29.48, 25.3 16.64, 38.8 0.6 M0.49 50.77 C14.02 32.57, 27.25 16.59, 44.44 0.21 M0.49 50.77 C16.79 32.78, 33.05 14.63, 44.44 0.21 M2.19 54.91 C20.87 32.05, 37.95 14.63, 49.43 0.57 M2.19 54.91 C18.14 34.73, 35.07 15.41, 49.43 0.57 M4.56 58.29 C18.76 44.06, 32.28 27.68, 54.42 0.93 M4.56 58.29 C23.12 38.95, 39.98 17.63, 54.42 0.93 M7.57 60.91 C25.56 40.52, 42.89 17.13, 60.06 0.53 M7.57 60.91 C21.22 47.14, 33.11 32.08, 60.06 0.53 M11.9 62.02 C28.94 45.73, 44.49 27.39, 65.05 0.89 M11.9 62.02 C23.84 48.06, 33.51 36.08, 65.05 0.89 M16.24 63.14 C33.61 43.25, 51.88 19.05, 70.69 0.5 M16.24 63.14 C31.38 44.02, 49.12 25.22, 70.69 0.5 M21.22 63.5 C34.84 44.98, 51.58 28.82, 75.68 0.86 M21.22 63.5 C42.76 38.1, 64.26 14.6, 75.68 0.86 M26.87 63.1 C41.95 47.94, 52.67 32.24, 81.32 0.46 M26.87 63.1 C39.3 49.6, 51.74 36.35, 81.32 0.46 M31.85 63.46 C51.98 37.95, 73.04 17.26, 86.31 0.82 M31.85 63.46 C52.87 38.55, 74.01 14.54, 86.31 0.82 M37.5 63.07 C51.91 45.45, 67.5 27.11, 91.95 0.43 M37.5 63.07 C57.28 42.18, 74.07 20.98, 91.95 0.43 M42.48 63.43 C59.16 47.29, 73.24 26.38, 96.94 0.79 M42.48 63.43 C61.88 41.4, 81.53 18.5, 96.94 0.79 M48.13 63.04 C64.52 46.76, 77.59 30.11, 102.58 0.39 M48.13 63.04 C67.6 39.12, 89.4 16.72, 102.58 0.39 M53.11 63.4 C72.75 39.1, 94.89 19.18, 107.57 0.75 M53.11 63.4 C72.66 41.53, 91.14 20.39, 107.57 0.75 M58.76 63 C78.18 43.09, 95.62 19.3, 113.21 0.36 M58.76 63 C74.68 46.26, 88.88 27.82, 113.21 0.36 M63.74 63.36 C81.55 41.07, 103.52 19.04, 118.2 0.72 M63.74 63.36 C75.15 50.43, 87.43 37.07, 118.2 0.72 M69.39 62.97 C85.65 43.25, 100.67 25.47, 123.84 0.33 M69.39 62.97 C80.51 48.97, 91.49 36.5, 123.84 0.33 M74.37 63.33 C89.06 45.92, 102.54 29.08, 128.17 1.44 M74.37 63.33 C93.39 43.1, 112.19 21.65, 128.17 1.44 M80.02 62.93 C99.11 44.81, 115.53 23.72, 132.5 2.56 M80.02 62.93 C97.19 43.82, 114.5 25.55, 132.5 2.56 M85 63.29 C98.55 49.74, 108.87 36.73, 135.52 5.18 M85 63.29 C99.57 45.21, 113.63 28.16, 135.52 5.18 M90.65 62.9 C105.69 42.63, 122 25.56, 137.88 8.56 M90.65 62.9 C109.89 43.33, 127.61 22.03, 137.88 8.56 M95.63 63.26 C110.01 48.25, 121.13 33.29, 138.93 13.45 M95.63 63.26 C111.99 44.06, 127.39 27.21, 138.93 13.45 M101.28 62.86 C113.16 48.4, 125.84 31.09, 138.67 19.84 M101.28 62.86 C108.48 53.36, 117.81 44.65, 138.67 19.84 M106.26 63.22 C115.09 55.35, 120.74 46.55, 138.41 26.24 M106.26 63.22 C114.88 52.8, 124.81 41.73, 138.41 26.24 M111.91 62.83 C120.5 51.06, 131.66 41.55, 138.81 31.89 M111.91 62.83 C122.2 52.39, 130.47 41.02, 138.81 31.89 M116.89 63.19 C123.84 55.87, 128.4 47.4, 138.54 38.28 M116.89 63.19 C121.67 58.16, 126.52 52.37, 138.54 38.28 M122.54 62.79 C129.18 59.21, 132.85 51.99, 138.94 43.93 M122.54 62.79 C126.07 57.1, 130.67 51.57, 138.94 43.93 M128.18 62.4 C132.96 57.76, 135.42 56.04, 138.02 51.08 M128.18 62.4 C131.23 59.12, 133.13 55.85, 138.02 51.08" stroke="#b2f2bb" stroke-width="0.5" fill="none"></path><path d="M15.66 0 C49.83 0.17, 86.84 -2.01, 122.91 0 M15.66 0 C44.2 -0.39, 72.14 -0.43, 122.91 0 M122.91 0 C135.01 -1.56, 138.75 4.08, 138.58 15.66 M122.91 0 C133.5 -1.52, 138.18 3.8, 138.58 15.66 M138.58 15.66 C138.17 22.97, 137.48 28.33, 138.58 46.99 M138.58 15.66 C138.55 25.22, 139.59 35.68, 138.58 46.99 M138.58 46.99 C139.4 56.27, 134.38 61.89, 122.91 62.65 M138.58 46.99 C137.2 55.72, 135.19 64.86, 122.91 62.65 M122.91 62.65 C81.94 63.35, 41.94 61.13, 15.66 62.65 M122.91 62.65 C98.62 62.13, 73.52 61.17, 15.66 62.65 M15.66 62.65 C6.32 62.2, 0.72 57.68, 0 46.99 M15.66 62.65 C6.86 61.73, 1.11 59.68, 0 46.99 M0 46.99 C1.91 37.96, -1.02 33.02, 0 15.66 M0 46.99 C-0.21 36.94, 0.57 26.79, 0 15.66 M0 15.66 C0.83 4.39, 4.06 1.73, 15.66 0 M0 15.66 C-1.8 4.16, 3.84 -1.1, 15.66 0" stroke="#2f9e44" stroke-width="1" fill="none"></path></g><g transform="translate(46.3999154644016 171.60191440809479) rotate(0 57.99166488647461 12.5)"><text x="57.99166488647461" y="0" font-family="Virgil, Segoe UI Emoji" font-size="20px" fill="#2f9e44" text-anchor="middle" style="white-space: pre;" direction="ltr" dominant-baseline="text-before-edge">ScreenModel</text></g><g stroke-linecap="round" transform="translate(37.260540716128844 297.0729763149349) rotate(0 67.13103963474725 31.326457728929427)"><path d="M2.32 5.99 C2.32 5.99, 2.32 5.99, 2.32 5.99 M2.32 5.99 C2.32 5.99, 2.32 5.99, 2.32 5.99 M0.74 13.9 C4.1 11.23, 5.13 10.35, 11.24 1.82 M0.74 13.9 C3.8 8.86, 7.97 5.98, 11.24 1.82 M0.48 20.29 C4.52 14.08, 12.13 9.19, 17.54 0.67 M0.48 20.29 C5.8 13.55, 11.96 6.48, 17.54 0.67 M0.88 25.94 C8.72 17.93, 12.87 8.93, 23.18 0.28 M0.88 25.94 C9 15.86, 18.42 4.87, 23.18 0.28 M0.61 32.33 C11.99 19.83, 18.78 10.83, 28.17 0.64 M0.61 32.33 C11.47 19.7, 22.5 8.16, 28.17 0.64 M1.01 37.98 C9.31 27.84, 20.63 16.73, 33.81 0.24 M1.01 37.98 C9.21 29.97, 16.14 19.11, 33.81 0.24 M0.75 44.37 C15.08 27.96, 27.85 11.02, 38.8 0.6 M0.75 44.37 C15.11 27.7, 31.48 9.8, 38.8 0.6 M0.49 50.77 C18.29 33.71, 34.05 14.77, 44.44 0.21 M0.49 50.77 C10.59 37.63, 21.4 26.85, 44.44 0.21 M2.19 54.91 C12.43 40.96, 22.3 31.31, 49.43 0.57 M2.19 54.91 C19.5 34.77, 36.09 15.27, 49.43 0.57 M4.56 58.29 C14.97 45.58, 27.92 29.86, 54.42 0.93 M4.56 58.29 C17.25 44.95, 27.88 30.42, 54.42 0.93 M7.57 60.91 C25.53 41.06, 43.6 21.46, 60.06 0.53 M7.57 60.91 C24.32 40.87, 42.51 21.02, 60.06 0.53 M11.9 62.02 C28.15 44.29, 41.88 27.69, 65.05 0.89 M11.9 62.02 C32.56 37.04, 53.98 13.27, 65.05 0.89 M16.24 63.14 C26.13 51.18, 37.39 36.4, 70.69 0.5 M16.24 63.14 C38.94 37.63, 60.05 12.54, 70.69 0.5 M21.22 63.5 C39.63 39.84, 62.65 16.46, 75.68 0.86 M21.22 63.5 C40.86 41.23, 61.92 18.49, 75.68 0.86 M26.87 63.1 C43.43 46.35, 56.66 25.9, 81.32 0.46 M26.87 63.1 C43.12 43.56, 61.04 24.7, 81.32 0.46 M31.85 63.46 C52.36 41.97, 70.25 20.12, 86.31 0.82 M31.85 63.46 C49.86 40.76, 70.04 20.02, 86.31 0.82 M37.5 63.07 C52.31 44.75, 70.09 26.8, 91.95 0.43 M37.5 63.07 C53.94 43.09, 72.37 22.87, 91.95 0.43 M42.48 63.43 C56.02 50.59, 67.02 32.15, 96.94 0.79 M42.48 63.43 C64.17 38.54, 86.44 13.5, 96.94 0.79 M48.13 63.04 C68.16 40.54, 83.01 20.84, 102.58 0.39 M48.13 63.04 C64.01 45.37, 78.13 28.77, 102.58 0.39 M53.11 63.4 C66.26 50.33, 77.57 32.81, 107.57 0.75 M53.11 63.4 C71.97 41.94, 90.8 19.12, 107.57 0.75 M58.76 63 C78.15 41.05, 94.15 22.47, 113.21 0.36 M58.76 63 C78.1 41.46, 96.99 19.06, 113.21 0.36 M63.74 63.36 C79.12 47.85, 92.49 33.09, 118.85 -0.03 M63.74 63.36 C79.5 44.75, 96.75 25.43, 118.85 -0.03 M69.39 62.97 C80.97 47.24, 92.61 33.19, 123.18 1.08 M69.39 62.97 C86.69 42.74, 105.44 21.82, 123.18 1.08 M74.37 63.33 C87.58 49.23, 100.13 34.62, 127.51 2.2 M74.37 63.33 C88.85 47.26, 103.99 29.73, 127.51 2.2 M80.02 62.93 C99.16 41.73, 116.78 19.11, 130.53 4.82 M80.02 62.93 C94.9 46.84, 108.75 28.73, 130.53 4.82 M85 63.29 C96.71 51.57, 104.93 40.97, 132.9 8.2 M85 63.29 C104.95 40.79, 123.91 19.01, 132.9 8.2 M90.65 62.9 C103.35 46.03, 118.15 30.77, 134.6 12.33 M90.65 62.9 C106.02 46.66, 120.19 28.9, 134.6 12.33 M95.63 63.26 C107.02 50.59, 115.54 41.62, 134.34 18.73 M95.63 63.26 C108.05 49.29, 121.05 34.32, 134.34 18.73 M101.28 62.86 C112.12 50.2, 120.76 41.37, 134.74 24.37 M101.28 62.86 C111.48 51.15, 121.07 41.59, 134.74 24.37 M106.26 63.22 C116.62 50.53, 126.66 38.79, 134.47 30.77 M106.26 63.22 C112.58 55.96, 118.17 49.91, 134.47 30.77 M111.91 62.83 C118.99 58.04, 121.85 49.15, 134.87 36.41 M111.91 62.83 C119.44 53.67, 129.19 43.98, 134.87 36.41 M116.89 63.19 C121.27 56.72, 125 53.85, 134.61 42.81 M116.89 63.19 C121.72 56.89, 127.94 50.16, 134.61 42.81 M123.19 62.04 C127.22 56.04, 131.92 51.08, 134.35 49.21 M123.19 62.04 C126.83 57.91, 129.7 53.72, 134.35 49.21" stroke="#a5d8ff" stroke-width="0.5" fill="none"></path><path d="M15.66 0 C36.22 0.42, 60.11 0.8, 118.6 0 M15.66 0 C54.04 -1.11, 92.34 -1.68, 118.6 0 M118.6 0 C128.37 1.68, 136.08 3.64, 134.26 15.66 M118.6 0 C128.13 -1.74, 132.77 3.16, 134.26 15.66 M134.26 15.66 C134.59 23.73, 134.55 32.64, 134.26 46.99 M134.26 15.66 C134.96 25.71, 135.06 33.16, 134.26 46.99 M134.26 46.99 C135.73 57.21, 127.22 61.02, 118.6 62.65 M134.26 46.99 C134.71 59.16, 127.59 61.14, 118.6 62.65 M118.6 62.65 C80.2 62.56, 42.89 62.05, 15.66 62.65 M118.6 62.65 C90.73 62.59, 61.5 62.87, 15.66 62.65 M15.66 62.65 C6.68 62.42, -0.79 55.64, 0 46.99 M15.66 62.65 C3.43 64.05, 0.39 59.07, 0 46.99 M0 46.99 C-1.18 40.71, 2.14 33.6, 0 15.66 M0 46.99 C-0.03 37.48, 0.82 28.98, 0 15.66 M0 15.66 C0.77 3.3, 5.49 1.88, 15.66 0 M0 15.66 C-1.94 5.68, 4.87 1.54, 15.66 0" stroke="#1971c2" stroke-width="1" fill="none"></path></g><g transform="translate(63.958246000290046 315.89943404386435) rotate(0 40.43333435058594 12.5)"><text x="40.43333435058594" y="0" font-family="Virgil, Segoe UI Emoji" font-size="20px" fill="#1971c2" text-anchor="middle" style="white-space: pre;" direction="ltr" dominant-baseline="text-before-edge">Manager</text></g><g stroke-linecap="round" transform="translate(10 584.4115936430669) rotate(0 94.3915803508761 31.326457728929427)"><path d="M2.32 5.99 C2.32 5.99, 2.32 5.99, 2.32 5.99 M2.32 5.99 C2.32 5.99, 2.32 5.99, 2.32 5.99 M0.74 13.9 C5.45 9.45, 10.32 3.69, 11.24 1.82 M0.74 13.9 C3.1 10.92, 6.18 7.71, 11.24 1.82 M0.48 20.29 C3.87 15.25, 9.84 6.64, 17.54 0.67 M0.48 20.29 C7.26 13.17, 14.22 5.28, 17.54 0.67 M0.88 25.94 C10.03 17.48, 18.43 7.35, 23.18 0.28 M0.88 25.94 C9.4 15.89, 17.87 7.18, 23.18 0.28 M0.61 32.33 C9.9 22.17, 15.55 12.33, 28.17 0.64 M0.61 32.33 C7.67 24.43, 13.76 18.2, 28.17 0.64 M1.01 37.98 C12.92 28.14, 20.77 17.64, 33.16 1 M1.01 37.98 C8.87 28.41, 18.36 19.23, 33.16 1 M0.75 44.37 C9.85 32.57, 21.91 19.03, 38.8 0.6 M0.75 44.37 C11.41 32.26, 22.77 19.25, 38.8 0.6 M0.49 50.77 C10.34 40.01, 22.12 25.77, 43.79 0.96 M0.49 50.77 C13.27 36.82, 25.29 21.97, 43.79 0.96 M2.19 54.91 C13.13 38.79, 26.51 24.75, 49.43 0.57 M2.19 54.91 C17.17 36.86, 34.64 17.62, 49.43 0.57 M3.9 59.04 C18.16 42.95, 33.3 23.93, 54.42 0.93 M3.9 59.04 C21.21 38.96, 38.84 19.48, 54.42 0.93 M7.57 60.91 C25.92 40.22, 44.14 17.2, 60.06 0.53 M7.57 60.91 C24.56 40.86, 42.61 20.1, 60.06 0.53 M11.9 62.02 C32.42 39.19, 50.71 16.17, 65.05 0.89 M11.9 62.02 C23.1 49.59, 34.05 36.54, 65.05 0.89 M16.89 62.38 C31.04 46.4, 49.44 26.08, 70.03 1.25 M16.89 62.38 C29.5 47.62, 41.34 35.09, 70.03 1.25 M22.54 61.99 C43.93 38.98, 61.26 15.25, 75.68 0.86 M22.54 61.99 C43.58 36.89, 64.85 13.21, 75.68 0.86 M27.52 62.35 C43.2 44.41, 55.74 27.63, 80.66 1.22 M27.52 62.35 C40.93 47.4, 54.13 31.34, 80.66 1.22 M33.17 61.96 C44.87 47.27, 56.2 33.09, 86.31 0.82 M33.17 61.96 C51.89 40.33, 71.87 18.95, 86.31 0.82 M38.15 62.32 C57.97 39.1, 77.51 17.15, 91.29 1.18 M38.15 62.32 C53.62 45, 69 26.52, 91.29 1.18 M43.8 61.92 C55.26 46.21, 72.01 30.67, 96.94 0.79 M43.8 61.92 C64.41 38.25, 86.38 13.81, 96.94 0.79 M48.78 62.28 C66.04 42.07, 83.83 23.61, 101.92 1.15 M48.78 62.28 C67.62 40.81, 83.62 20.65, 101.92 1.15 M53.77 62.64 C64.11 48.01, 76.61 36.84, 107.57 0.75 M53.77 62.64 C75.13 38, 96.9 12.67, 107.57 0.75 M59.41 62.25 C76.03 46.72, 90.48 25.7, 112.55 1.11 M59.41 62.25 C78.29 38.86, 98.17 18.07, 112.55 1.11 M64.4 62.61 C78.65 47.44, 89.8 30.53, 117.54 1.48 M64.4 62.61 C80.72 43.66, 97.43 23.96, 117.54 1.48 M70.04 62.21 C89.81 39.3, 108.77 21.34, 123.18 1.08 M70.04 62.21 C85.79 43.06, 101.6 23.72, 123.18 1.08 M75.03 62.57 C92.95 39.65, 114.68 19.68, 128.17 1.44 M75.03 62.57 C88.12 48.83, 101.09 33.25, 128.17 1.44 M80.67 62.18 C100.82 36.55, 122.55 15.56, 133.81 1.05 M80.67 62.18 C94.98 45.69, 111.41 27.34, 133.81 1.05 M85.66 62.54 C100.92 43.51, 115.87 28.12, 138.8 1.41 M85.66 62.54 C103.99 40.01, 123.51 17.84, 138.8 1.41 M90.65 62.9 C103.59 50.75, 115.15 39.17, 144.44 1.01 M90.65 62.9 C109.41 41.37, 125.98 19.5, 144.44 1.01 M96.29 62.5 C106.86 47.33, 120.07 33.84, 149.43 1.37 M96.29 62.5 C118.47 37.4, 139.45 14.58, 149.43 1.37 M101.28 62.86 C111.77 49.88, 123.96 35.02, 154.42 1.73 M101.28 62.86 C118.08 43.55, 136.82 21.5, 154.42 1.73 M106.92 62.47 C117.61 50.97, 130.79 33.94, 160.06 1.34 M106.92 62.47 C126.84 40.4, 145.34 18.82, 160.06 1.34 M111.91 62.83 C129.07 42.94, 146.21 24.84, 165.05 1.7 M111.91 62.83 C123.07 47.85, 136.45 33.79, 165.05 1.7 M117.55 62.43 C130.58 49.41, 144.35 33.99, 170.69 1.3 M117.55 62.43 C128.03 50.84, 139.8 38.13, 170.69 1.3 M122.54 62.79 C134.45 45.8, 146.87 30.53, 175.68 1.66 M122.54 62.79 C134.2 48.7, 146.11 37.08, 175.68 1.66 M128.18 62.4 C142.76 43.09, 161.59 28.33, 181.32 1.27 M128.18 62.4 C147.6 40.61, 167.31 17.17, 181.32 1.27 M133.17 62.76 C144.09 49.32, 157.83 31.05, 184.34 3.89 M133.17 62.76 C151.88 40.07, 171.04 16.97, 184.34 3.89 M138.15 63.12 C152.06 50.72, 162.66 32.49, 186.7 7.27 M138.15 63.12 C149.41 49.09, 160.91 36.28, 186.7 7.27 M143.8 62.73 C158.89 45.03, 175.46 24.13, 188.41 11.4 M143.8 62.73 C154.81 51.03, 167.02 38.44, 188.41 11.4 M148.78 63.09 C161.79 48.61, 175.59 30.21, 188.8 17.05 M148.78 63.09 C161.2 49.16, 171.42 36.81, 188.8 17.05 M154.43 62.69 C168.88 46.95, 179.41 33.65, 188.54 23.45 M154.43 62.69 C161.9 53.45, 170.56 43.55, 188.54 23.45 M159.41 63.05 C167.3 55.76, 172.25 47.58, 188.94 29.09 M159.41 63.05 C168.63 53.47, 177.13 43.25, 188.94 29.09 M165.06 62.66 C171.71 55.26, 175.82 48.51, 188.68 35.49 M165.06 62.66 C173.16 52.96, 182.15 42.79, 188.68 35.49 M170.04 63.02 C177.27 57.57, 184.26 46.58, 188.41 41.88 M170.04 63.02 C177.77 54.15, 184.56 46.05, 188.41 41.88 M175.69 62.62 C179.93 59.9, 180.88 55.66, 188.15 48.28 M175.69 62.62 C178.94 59.38, 181.42 55.53, 188.15 48.28" stroke="#d0bfff" stroke-width="0.5" fill="none"></path><path d="M15.66 0 C76.49 0.32, 139.19 -1.78, 173.12 0 M15.66 0 C55.92 0.47, 94.99 2.28, 173.12 0 M173.12 0 C182.25 0.91, 190.13 4.44, 188.78 15.66 M173.12 0 C183.94 -1.38, 190.31 4.05, 188.78 15.66 M188.78 15.66 C189.73 23.07, 189.82 31.64, 188.78 46.99 M188.78 15.66 C188.89 24.54, 188.43 32.93, 188.78 46.99 M188.78 46.99 C190.54 58.88, 185.33 61.64, 173.12 62.65 M188.78 46.99 C188.05 57.73, 183.55 62.3, 173.12 62.65 M173.12 62.65 C139.76 63.87, 105.41 63.23, 15.66 62.65 M173.12 62.65 C111.86 63.49, 49.68 63.89, 15.66 62.65 M15.66 62.65 C3.83 61.34, 1.41 57.83, 0 46.99 M15.66 62.65 C5.28 64.47, -0.38 56.09, 0 46.99 M0 46.99 C0.4 38.28, -0.88 25.36, 0 15.66 M0 46.99 C-0.72 38.32, -0.98 29.15, 0 15.66 M0 15.66 C1.73 3.87, 3.55 1.98, 15.66 0 M0 15.66 C-0.76 6.94, 4.68 1.16, 15.66 0" stroke="#6741d9" stroke-width="1" fill="none"></path></g><g transform="translate(45.51658035087621 603.2380513719963) rotate(0 58.875 12.5)"><text x="58.875" y="0" font-family="Virgil, Segoe UI Emoji" font-size="20px" fill="#6741d9" text-anchor="middle" style="white-space: pre;" direction="ltr" dominant-baseline="text-before-edge">DataSource</text></g><g stroke-linecap="round"><g transform="translate(105.28360914256496 80.76150229471853) rotate(0 -0.6498094725775445 31.857372613686124)"><path d="M-1.06 -0.14 C-1.56 10.42, -2.4 52.08, -2.38 62.74 M0.59 -1.26 C0.4 9.47, 0.12 52.7, -0.23 63.77" stroke="#1e1e1e" stroke-width="1" fill="none"></path></g><g transform="translate(105.28360914256496 80.76150229471853) rotate(0 -0.6498094725775445 31.857372613686124)"><path d="M-10 35.41 C-6.94 43.68, -4.89 56.09, -0.23 63.77 M-10 35.41 C-7.85 44.76, -3.69 52.21, -0.23 63.77" stroke="#1e1e1e" stroke-width="1" fill="none"></path></g><g transform="translate(105.28360914256496 80.76150229471853) rotate(0 -0.6498094725775445 31.857372613686124)"><path d="M10.52 35.76 C6.36 43.73, 1.19 56.01, -0.23 63.77 M10.52 35.76 C6.33 45.16, 4.16 52.5, -0.23 63.77" stroke="#1e1e1e" stroke-width="1" fill="none"></path></g></g><mask></mask><g stroke-linecap="round"><g transform="translate(105.14332703459309 223.46142255487575) rotate(0 -0.9802417712025999 32.75320047790973)"><path d="M0.03 -0.11 C-0.19 10.55, -0.76 53.77, -0.91 64.59 M-1.41 -1.22 C-1.73 9.52, -1.37 54.48, -1.31 65.65" stroke="#1e1e1e" stroke-width="1" fill="none"></path></g><g transform="translate(105.14332703459309 223.46142255487575) rotate(0 -0.9802417712025999 32.75320047790973)"><path d="M-11.75 37.53 C-8.31 48.67, -6.15 58.19, -1.31 65.65 M-11.75 37.53 C-8.74 44.39, -6.59 50.54, -1.31 65.65" stroke="#1e1e1e" stroke-width="1" fill="none"></path></g><g transform="translate(105.14332703459309 223.46142255487575) rotate(0 -0.9802417712025999 32.75320047790973)"><path d="M8.77 37.4 C5.36 48.59, 0.66 58.15, -1.31 65.65 M8.77 37.4 C6.76 44.47, 3.89 50.65, -1.31 65.65" stroke="#1e1e1e" stroke-width="1" fill="none"></path></g></g><mask></mask><g stroke-linecap="round"><g transform="translate(103.25871046415023 369.08832456670416) rotate(0 0.6575948321520855 31.32909577293654)"><path d="M1.18 -0.63 C1.64 9.93, 1.71 53.14, 1.93 63.55 M0.33 1.65 C0.77 11.87, 0.97 51.72, 1.31 61.9" stroke="#1e1e1e" stroke-width="1" fill="none"></path></g><g transform="translate(103.25871046415023 369.08832456670416) rotate(0 0.6575948321520855 31.32909577293654)"><path d="M-9.45 33.9 C-8.02 41.19, -3.03 48.51, 1.31 61.9 M-9.45 33.9 C-6.58 41.22, -4.46 45.84, 1.31 61.9" stroke="#1e1e1e" stroke-width="1" fill="none"></path></g><g transform="translate(103.25871046415023 369.08832456670416) rotate(0 0.6575948321520855 31.32909577293654)"><path d="M11.07 33.53 C7.83 41.1, 8.16 48.51, 1.31 61.9 M11.07 33.53 C9.19 40.98, 6.56 45.68, 1.31 61.9" stroke="#1e1e1e" stroke-width="1" fill="none"></path></g></g><mask></mask><g stroke-linecap="round" transform="translate(37.260540716128844 441.3712556957964) rotate(0 67.13103963474725 31.326457728929427)"><path d="M2.32 5.99 C2.32 5.99, 2.32 5.99, 2.32 5.99 M2.32 5.99 C2.32 5.99, 2.32 5.99, 2.32 5.99 M1.4 13.14 C4.15 10.76, 7.61 7.99, 8.62 4.84 M1.4 13.14 C4.16 9.94, 6.81 7.5, 8.62 4.84 M1.79 18.78 C6.69 12.63, 11.25 7.89, 16.88 1.43 M1.79 18.78 C7.43 12.65, 11.06 7.66, 16.88 1.43 M1.53 25.18 C8.25 17.01, 13.58 13.51, 22.53 1.03 M1.53 25.18 C5.37 20.25, 10.54 15.86, 22.53 1.03 M1.27 31.58 C8.72 19.58, 17.9 10.91, 27.51 1.39 M1.27 31.58 C10.28 21.34, 19.24 9.86, 27.51 1.39 M1.66 37.22 C8.7 26.74, 20.9 15.53, 33.16 1 M1.66 37.22 C9.1 28.2, 16.59 21.47, 33.16 1 M1.4 43.62 C8.75 35.93, 16.19 26.47, 38.14 1.36 M1.4 43.62 C9.81 34.51, 17.91 24.21, 38.14 1.36 M0.49 50.77 C10.03 39.76, 20.9 25.84, 43.79 0.96 M0.49 50.77 C13.82 34.73, 28 20.01, 43.79 0.96 M2.19 54.91 C16.57 38.11, 29.5 20.88, 48.77 1.32 M2.19 54.91 C18.27 37.36, 31.67 20.67, 48.77 1.32 M4.56 58.29 C15.98 45.95, 26.6 30.85, 54.42 0.93 M4.56 58.29 C24.54 36.38, 43.06 14.5, 54.42 0.93 M6.92 61.66 C19.56 47.57, 29.61 35.51, 59.4 1.29 M6.92 61.66 C27.11 39.97, 46.46 17.57, 59.4 1.29 M11.9 62.02 C26.42 42.33, 44.98 25.32, 65.05 0.89 M11.9 62.02 C30.01 40.33, 48.44 20.12, 65.05 0.89 M16.24 63.14 C36.15 41.13, 58.34 14.69, 70.03 1.25 M16.24 63.14 C30.29 46.45, 44.12 31.21, 70.03 1.25 M21.22 63.5 C41.58 44.49, 57.54 22.34, 75.68 0.86 M21.22 63.5 C41.48 40.04, 62.14 17.45, 75.68 0.86 M26.87 63.1 C40.98 49.7, 52.36 32.89, 80.66 1.22 M26.87 63.1 C41.22 46.9, 53.97 30.82, 80.66 1.22 M31.85 63.46 C45.34 47.34, 58.47 32.94, 85.65 1.58 M31.85 63.46 C51.5 41.32, 71.65 17.02, 85.65 1.58 M37.5 63.07 C54.18 42.12, 74.23 22.06, 91.29 1.18 M37.5 63.07 C58.91 39.18, 81.04 14.92, 91.29 1.18 M42.48 63.43 C58.92 41.1, 79.02 20.66, 96.28 1.54 M42.48 63.43 C60.8 41.39, 81.46 19.34, 96.28 1.54 M48.13 63.04 C65.25 46.91, 78.73 26.21, 101.92 1.15 M48.13 63.04 C60.75 48.35, 74.62 33.33, 101.92 1.15 M53.11 63.4 C71.64 43.65, 87.4 20.36, 106.91 1.51 M53.11 63.4 C69.3 44.8, 84.61 27.31, 106.91 1.51 M58.76 63 C78.75 40.35, 95.6 20.32, 112.55 1.11 M58.76 63 C79.7 38.84, 98.6 16, 112.55 1.11 M63.74 63.36 C80.05 44.06, 98.17 19.96, 118.85 -0.03 M63.74 63.36 C82.97 40.32, 103.62 16.45, 118.85 -0.03 M69.39 62.97 C81.13 47.59, 93.12 35.5, 123.18 1.08 M69.39 62.97 C84.46 45.31, 98.7 27.8, 123.18 1.08 M74.37 63.33 C88.92 43.73, 107.64 27.55, 127.51 2.2 M74.37 63.33 C95.85 40.25, 115.94 14.73, 127.51 2.2 M80.02 62.93 C94.11 43.07, 113.65 24.54, 130.53 4.82 M80.02 62.93 C93.16 46.24, 107.51 31.56, 130.53 4.82 M85 63.29 C103.2 41.69, 121.45 22.25, 133.55 7.44 M85 63.29 C95.58 50.41, 105.34 38.03, 133.55 7.44 M90.65 62.9 C103.87 50.57, 115.46 35.53, 134.6 12.33 M90.65 62.9 C107.1 44.55, 121.84 27.76, 134.6 12.33 M95.63 63.26 C109.86 47.8, 119.84 32.11, 134.34 18.73 M95.63 63.26 C106.81 52.01, 116.71 39.36, 134.34 18.73 M101.28 62.86 C113.16 49.39, 126.12 34.84, 134.74 24.37 M101.28 62.86 C114.77 49.05, 127.26 32.59, 134.74 24.37 M106.26 63.22 C114.6 50.48, 125.51 41, 134.47 30.77 M106.26 63.22 C116.81 50.39, 127.54 38.12, 134.47 30.77 M111.91 62.83 C117.64 55.42, 120.03 51.27, 134.87 36.41 M111.91 62.83 C117.84 54.9, 125.74 47.76, 134.87 36.41 M116.89 63.19 C123.34 54.84, 130.7 49.55, 134.61 42.81 M116.89 63.19 C121.41 58.23, 125.36 53.8, 134.61 42.81 M121.22 64.3 C126.2 59.37, 133.16 51.72, 135.66 47.7 M121.22 64.3 C124.43 59.86, 128.49 56.15, 135.66 47.7" stroke="#ffec99" stroke-width="0.5" fill="none"></path><path d="M15.66 0 C38.05 1.41, 58.49 -0.18, 118.6 0 M15.66 0 C56.7 1.33, 96.49 0.59, 118.6 0 M118.6 0 C130.07 1.78, 134.53 6.54, 134.26 15.66 M118.6 0 C128.6 -0.3, 135.43 4.11, 134.26 15.66 M134.26 15.66 C135.78 27.27, 133.04 36.76, 134.26 46.99 M134.26 15.66 C134.3 22.79, 134.03 28.26, 134.26 46.99 M134.26 46.99 C135.6 58.32, 127.23 63.7, 118.6 62.65 M134.26 46.99 C135.2 59.45, 130.97 64.21, 118.6 62.65 M118.6 62.65 C93.87 63.53, 68.84 62.83, 15.66 62.65 M118.6 62.65 C85.88 62.91, 55.31 61.75, 15.66 62.65 M15.66 62.65 C3.96 61.43, -1.57 57.98, 0 46.99 M15.66 62.65 C6.18 62.19, 0.94 59.31, 0 46.99 M0 46.99 C0.92 37.18, 1.5 25.31, 0 15.66 M0 46.99 C0.1 37.04, 1.05 26.14, 0 15.66 M0 15.66 C-0.69 3.71, 6.64 -1.35, 15.66 0 M0 15.66 C-0.33 4.66, 6.9 -0.86, 15.66 0" stroke="#f08c00" stroke-width="1" fill="none"></path></g><g transform="translate(53.85824752616895 460.1977134247258) rotate(0 50.53333282470703 12.5)"><text x="50.53333282470703" y="0" font-family="Virgil, Segoe UI Emoji" font-size="20px" fill="#f08c00" text-anchor="middle" style="white-space: pre;" direction="ltr" dominant-baseline="text-before-edge">Repository</text></g><g stroke-linecap="round"><g transform="translate(102.77615166140868 511.9860892055787) rotate(0 1.3053467306966695 31.106020077102755)"><path d="M0.78 1.19 C1.52 11.45, 3.08 52.05, 3.5 62.18 M-0.27 0.77 C0.47 11.17, 2.49 53.3, 3.02 63.7" stroke="#1e1e1e" stroke-width="1" fill="none"></path></g><g transform="translate(102.77615166140868 511.9860892055787) rotate(0 1.3053467306966695 31.106020077102755)"><path d="M-8.63 36.05 C-3.91 43.61, -3.35 49.45, 3.02 63.7 M-8.63 36.05 C-4.59 44.57, -2.92 50.89, 3.02 63.7" stroke="#1e1e1e" stroke-width="1" fill="none"></path></g><g transform="translate(102.77615166140868 511.9860892055787) rotate(0 1.3053467306966695 31.106020077102755)"><path d="M11.87 35.03 C12.03 42.96, 8.01 49.02, 3.02 63.7 M11.87 35.03 C10.19 43.7, 6.15 50.3, 3.02 63.7" stroke="#1e1e1e" stroke-width="1" fill="none"></path></g></g><mask></mask></svg>