<svg version="1.1" xmlns="http://www.w3.org/2000/svg" viewBox="0 0 208.7831607017522 657.0645091009258" width="208.7831607017522" height="657.0645091009258">
  <!-- svg-source:excalidraw -->
  
  <defs>
    <style class="style-fonts">
      @font-face {
        font-family: "Virgil";
        src: url("https://excalidraw.com/Virgil.woff2");
      }
      @font-face {
        font-family: "Cascadia";
        src: url("https://excalidraw.com/Cascadia.woff2");
      }
    </style>
    
  </defs>
  <rect x="0" y="0" width="208.7831607017522" height="657.0645091009258" fill="#ffffff"></rect><g stroke-linecap="round" transform="translate(62.04285045806432 10) rotate(0 42.348729892812 31.326457728929412)"><path d="M2.32 5.99 C2.32 5.99, 2.32 5.99, 2.32 5.99 M2.32 5.99 C2.32 5.99, 2.32 5.99, 2.32 5.99 M1.4 13.14 C3.89 9.91, 5.42 7.49, 8.62 4.84 M1.4 13.14 C3.16 11.25, 4.75 8.74, 8.62 4.84 M1.79 18.78 C7.85 13.22, 11.66 7.26, 16.88 1.43 M1.79 18.78 C7.84 12.04, 13.84 5.2, 16.88 1.43 M1.53 25.18 C8.63 18.02, 14.1 10.55, 22.53 1.03 M1.53 25.18 C5.68 19.44, 9.25 14.87, 22.53 1.03 M1.27 31.58 C10.79 21.56, 19.51 12.07, 27.51 1.39 M1.27 31.58 C7.66 23.79, 13.47 16.86, 27.51 1.39 M1.66 37.22 C12.21 27.49, 21.1 15.62, 33.16 1 M1.66 37.22 C8.06 29.59, 15.53 20.35, 33.16 1 M1.4 43.62 C11.56 28.51, 25.12 15.86, 38.14 1.36 M1.4 43.62 C9.4 34.99, 16.48 25.97, 38.14 1.36 M0.49 50.77 C11.93 37.01, 23.97 21.77, 43.79 0.96 M0.49 50.77 C15.22 33.2, 30.22 14.98, 43.79 0.96 M2.19 54.91 C13.9 39.82, 26.86 27.67, 48.77 1.32 M2.19 54.91 C14.16 40.73, 28.69 25.3, 48.77 1.32 M3.9 59.04 C21.64 39.05, 41.52 18.05, 54.42 0.93 M3.9 59.04 C17.1 42.49, 31.31 28.19, 54.42 0.93 M7.57 60.91 C28.67 38.67, 49.81 12.56, 59.4 1.29 M7.57 60.91 C22.59 42.81, 38.82 25.02, 59.4 1.29 M10.59 63.53 C29.85 37.91, 49.29 16.56, 65.05 0.89 M10.59 63.53 C28.55 44.04, 44.97 24.21, 65.05 0.89 M16.24 63.14 C34.95 41.32, 56.11 20.3, 70.03 1.25 M16.24 63.14 C31.51 45.28, 49.59 25.98, 70.03 1.25 M21.22 63.5 C35.61 46.64, 47.73 31.35, 75.02 1.61 M21.22 63.5 C38.94 44.88, 55.69 25.31, 75.02 1.61 M26.87 63.1 C38.64 50.78, 47.37 39.54, 78.69 3.48 M26.87 63.1 C43.18 42.84, 62.32 22.75, 78.69 3.48 M31.85 63.46 C48.33 41.45, 70.83 20.78, 82.37 5.35 M31.85 63.46 C48.75 43.39, 65.04 25.41, 82.37 5.35 M37.5 63.07 C54.31 44.19, 68.56 23.4, 84.08 9.49 M37.5 63.07 C52.16 46.25, 66.56 30.97, 84.08 9.49 M42.48 63.43 C59.41 43.07, 74.82 25.3, 85.13 14.37 M42.48 63.43 C56.45 47.9, 71.5 30.34, 85.13 14.37 M48.13 63.04 C60.11 48.33, 75.34 34.71, 87.49 17.75 M48.13 63.04 C57.8 51.22, 68.46 40.08, 87.49 17.75 M53.11 63.4 C60.97 53.85, 65.5 47.44, 87.23 24.15 M53.11 63.4 C61.94 52.83, 72.86 41.58, 87.23 24.15 M58.76 63 C67.43 51.73, 76.55 40.61, 86.97 30.55 M58.76 63 C66.78 53.42, 75.55 43.44, 86.97 30.55 M63.74 63.36 C72.1 53.79, 83.52 40.38, 87.36 36.19 M63.74 63.36 C70.21 55.52, 78.53 46.73, 87.36 36.19 M69.39 62.97 C75.32 58.14, 78.59 51.49, 87.1 42.59 M69.39 62.97 C75.82 56.08, 81.93 46.66, 87.1 42.59 M75.69 61.82 C78.33 56.57, 82.19 54.05, 84.87 51.25 M75.69 61.82 C77.63 59.56, 81.02 56.55, 84.87 51.25" stroke="#ffc9c9" stroke-width="0.5" fill="none"></path><path d="M15.66 0 M15.66 0 C33.74 -0.21, 47.12 2.21, 69.03 0 M15.66 0 C25.81 -0.61, 37.87 0.9, 69.03 0 M69.03 0 C78.41 0.3, 84.22 6.62, 84.7 15.66 M69.03 0 C81.74 -2.15, 84.54 3.9, 84.7 15.66 M84.7 15.66 C83.19 25.85, 83.87 39.02, 84.7 46.99 M84.7 15.66 C84.24 26.34, 83.79 35.28, 84.7 46.99 M84.7 46.99 C83.38 56.68, 81.19 61.02, 69.03 62.65 M84.7 46.99 C83.24 56.2, 80.62 61.84, 69.03 62.65 M69.03 62.65 C47.29 62.13, 26.76 61.26, 15.66 62.65 M69.03 62.65 C49.68 62.73, 32.04 63.2, 15.66 62.65 M15.66 62.65 C6.32 63.6, 0.81 58.8, 0 46.99 M15.66 62.65 C3.06 61.25, -1.16 59.16, 0 46.99 M0 46.99 C1.03 37.16, -0.39 26.89, 0 15.66 M0 46.99 C-0.93 38.59, -0.66 27.48, 0 15.66 M0 15.66 C0.89 4.72, 3.32 -1.68, 15.66 0 M0 15.66 C1.92 6.1, 4.46 -1.12, 15.66 0" stroke="#e03131" stroke-width="1" fill="none"></path></g><g transform="translate(85.47491431999265 28.826457728929398) rotate(0 18.91666603088379 12.5)"><text x="18.91666603088379" y="0" font-family="Virgil, Segoe UI Emoji" font-size="20px" fill="#e03131" text-anchor="middle" style="white-space: pre;" direction="ltr" dominant-baseline="text-before-edge">View</text></g><g stroke-linecap="round" transform="translate(41.44318965894195 152.7754566791654) rotate(0 62.94839069193438 31.326457728929412)"><path d="M2.32 5.99 C2.32 5.99, 2.32 5.99, 2.32 5.99 M2.32 5.99 C2.32 5.99, 2.32 5.99, 2.32 5.99 M1.4 13.14 C3.6 10.03, 6.26 6.59, 8.62 4.84 M1.4 13.14 C3.04 11.1, 4.97 8.93, 8.62 4.84 M1.79 18.78 C5.36 14.72, 7.68 12.82, 16.88 1.43 M1.79 18.78 C6.63 13.44, 9.91 8.02, 16.88 1.43 M1.53 25.18 C11.21 15.12, 16.91 7.76, 22.53 1.03 M1.53 25.18 C8.04 16.77, 15.11 10.58, 22.53 1.03 M1.27 31.58 C7.74 24.35, 15.23 17.25, 27.51 1.39 M1.27 31.58 C7.47 23.05, 14.22 16.53, 27.51 1.39 M1.66 37.22 C10.18 27.11, 17.38 18.48, 33.16 1 M1.66 37.22 C12.3 24.73, 21.66 14.09, 33.16 1 M1.4 43.62 C8.79 34.69, 16.2 24.81, 38.14 1.36 M1.4 43.62 C11.84 30.92, 23.57 18.68, 38.14 1.36 M0.49 50.77 C9.75 37.73, 20.04 27.66, 43.79 0.96 M0.49 50.77 C12.25 37.62, 24.38 24.06, 43.79 0.96 M2.19 54.91 C21.62 33.53, 36.98 14.22, 48.77 1.32 M2.19 54.91 C13.6 41.52, 27.03 27.36, 48.77 1.32 M4.56 58.29 C23.16 34.98, 41.36 13.09, 54.42 0.93 M4.56 58.29 C22.21 38.84, 38.98 18.63, 54.42 0.93 M6.92 61.66 C25.33 41.09, 46.06 16.53, 59.4 1.29 M6.92 61.66 C24.38 40.54, 43.09 19.67, 59.4 1.29 M11.9 62.02 C25.67 47, 41.51 30.83, 65.05 0.89 M11.9 62.02 C25.86 45.37, 40.19 28.76, 65.05 0.89 M16.24 63.14 C31.98 44.67, 46.09 29.98, 70.03 1.25 M16.24 63.14 C29.03 48.6, 41.36 34.83, 70.03 1.25 M21.22 63.5 C36.34 47.47, 51.07 29.95, 75.68 0.86 M21.22 63.5 C42.01 38.74, 64.18 15.08, 75.68 0.86 M26.87 63.1 C44.03 45.36, 62.12 24.61, 80.66 1.22 M26.87 63.1 C42.95 45.41, 60.28 25.46, 80.66 1.22 M31.85 63.46 C46.62 44.03, 63.5 26.66, 85.65 1.58 M31.85 63.46 C50.42 42.12, 68.21 21.23, 85.65 1.58 M37.5 63.07 C50 46.84, 62.43 36.38, 91.29 1.18 M37.5 63.07 C53.95 42.63, 70.9 23.18, 91.29 1.18 M42.48 63.43 C54.11 48.95, 66.25 33.8, 96.28 1.54 M42.48 63.43 C63.21 40.06, 82.3 16.72, 96.28 1.54 M48.13 63.04 C60.58 47.37, 78.2 30.65, 101.92 1.15 M48.13 63.04 C62.03 45.58, 76.68 30.89, 101.92 1.15 M53.11 63.4 C70.08 45.33, 83.33 29.81, 106.91 1.51 M53.11 63.4 C69.36 45.74, 86.5 26.65, 106.91 1.51 M58.76 63 C80.56 40.03, 99.16 13.89, 111.9 1.87 M58.76 63 C74.55 43.51, 91.55 23.04, 111.9 1.87 M63.74 63.36 C79.77 47.22, 94.57 29.37, 116.23 2.98 M63.74 63.36 C78.1 48.03, 93.78 29.79, 116.23 2.98 M69.39 62.97 C81.54 47.42, 96.53 33.3, 121.22 3.34 M69.39 62.97 C85.78 43.8, 103.03 24.25, 121.22 3.34 M74.37 63.33 C90.09 43.97, 109.25 20.19, 124.23 5.97 M74.37 63.33 C84.52 49.77, 96.66 37.42, 124.23 5.97 M80.02 62.93 C89.77 50.55, 101.23 36.31, 125.28 10.86 M80.02 62.93 C91 49.91, 103.99 35.66, 125.28 10.86 M85 63.29 C97.77 51.19, 109.08 36.67, 127.65 14.24 M85 63.29 C96.18 52.53, 106.69 39.47, 127.65 14.24 M90.65 62.9 C98.71 54.2, 108.98 43.76, 128.04 19.88 M90.65 62.9 C97.37 53.97, 105.69 45.67, 128.04 19.88 M95.63 63.26 C102.2 54.4, 112.29 45.25, 127.78 26.28 M95.63 63.26 C108.62 49.58, 120.12 33.74, 127.78 26.28 M101.28 62.86 C106.24 57.49, 113.16 49.24, 128.18 31.92 M101.28 62.86 C111.68 50.45, 120.57 39.31, 128.18 31.92 M106.26 63.22 C113.74 53.15, 121.79 46.64, 127.91 38.32 M106.26 63.22 C112.75 55.13, 119.15 47.85, 127.91 38.32 M111.25 63.58 C118.52 57.72, 123.16 48.08, 128.31 43.96 M111.25 63.58 C116.6 57.56, 120.69 52.79, 128.31 43.96 M117.55 62.43 C121.59 61.13, 121.42 55.95, 128.7 49.6 M117.55 62.43 C121.27 58.35, 124.46 54.44, 128.7 49.6" stroke="#b2f2bb" stroke-width="0.5" fill="none"></path><path d="M15.66 0 M15.66 0 C50.48 -1.03, 88.91 0.54, 110.23 0 M15.66 0 C48.07 0.75, 82.44 -0.17, 110.23 0 M110.23 0 C118.69 1.33, 127.53 5.72, 125.9 15.66 M110.23 0 C121.54 -0.32, 125.41 3.86, 125.9 15.66 M125.9 15.66 C124.02 29.41, 126.75 40.48, 125.9 46.99 M125.9 15.66 C126.48 27.46, 126.46 38.33, 125.9 46.99 M125.9 46.99 C124.86 58.29, 119.05 61.46, 110.23 62.65 M125.9 46.99 C123.72 55.82, 122.59 60.86, 110.23 62.65 M110.23 62.65 C83.76 61.38, 61.19 63.8, 15.66 62.65 M110.23 62.65 C78.61 62.08, 47.68 62.15, 15.66 62.65 M15.66 62.65 C5.19 63.36, -1.53 58.64, 0 46.99 M15.66 62.65 C4.62 61.76, -1.35 56.6, 0 46.99 M0 46.99 C-2.04 36.93, 0.61 28.49, 0 15.66 M0 46.99 C0.38 41.03, 0.18 34.39, 0 15.66 M0 15.66 C-1.42 4.53, 3.9 1.33, 15.66 0 M0 15.66 C-1.72 4.93, 6.69 -0.79, 15.66 0" stroke="#2f9e44" stroke-width="1" fill="none"></path></g><g transform="translate(58.48324752616918 171.60191440809484) rotate(0 45.90833282470703 12.5)"><text x="45.90833282470703" y="0" font-family="Virgil, Segoe UI Emoji" font-size="20px" fill="#2f9e44" text-anchor="middle" style="white-space: pre;" direction="ltr" dominant-baseline="text-before-edge">ViewModel</text></g><g stroke-linecap="round" transform="translate(37.260540716128844 297.0729763149349) rotate(0 67.13103963474725 31.326457728929427)"><path d="M2.32 5.99 C2.32 5.99, 2.32 5.99, 2.32 5.99 M2.32 5.99 C2.32 5.99, 2.32 5.99, 2.32 5.99 M1.4 13.14 C2.38 10.43, 4.35 7.94, 8.62 4.84 M1.4 13.14 C3.22 11.51, 4.24 9.75, 8.62 4.84 M1.79 18.78 C4.52 15.27, 11.62 10.87, 16.88 1.43 M1.79 18.78 C4.1 14.14, 8.54 11.86, 16.88 1.43 M1.53 25.18 C5.72 18.06, 10.46 14.16, 22.53 1.03 M1.53 25.18 C5.56 19.11, 11.89 14.15, 22.53 1.03 M1.27 31.58 C7.34 23.13, 12.27 14.89, 27.51 1.39 M1.27 31.58 C9.99 19.95, 19.65 8.93, 27.51 1.39 M1.66 37.22 C12.14 23.16, 23.93 11.48, 33.16 1 M1.66 37.22 C10.56 26.05, 19.03 17.91, 33.16 1 M1.4 43.62 C10.58 33.44, 18.83 27.04, 38.14 1.36 M1.4 43.62 C10.69 33.65, 18.84 22.62, 38.14 1.36 M0.49 50.77 C12.44 33.79, 25.55 20.38, 43.79 0.96 M0.49 50.77 C10.34 39.99, 20.87 26.7, 43.79 0.96 M2.19 54.91 C17.7 38.87, 33.54 17.83, 48.77 1.32 M2.19 54.91 C15.75 40.8, 27.74 26.04, 48.77 1.32 M4.56 58.29 C19.71 39.89, 38.52 22, 54.42 0.93 M4.56 58.29 C21.99 36.45, 42.61 15.61, 54.42 0.93 M6.92 61.66 C27.54 37.07, 48.23 15.12, 59.4 1.29 M6.92 61.66 C26.44 38.71, 48.14 14.9, 59.4 1.29 M11.9 62.02 C30.07 43.28, 47.4 19.71, 65.05 0.89 M11.9 62.02 C24.65 48.13, 36.42 32.8, 65.05 0.89 M16.24 63.14 C27.67 45.57, 43.8 34.07, 70.03 1.25 M16.24 63.14 C33.28 42.51, 51.92 22.48, 70.03 1.25 M21.22 63.5 C40.78 42.51, 58.98 20.17, 75.68 0.86 M21.22 63.5 C37.76 44.67, 52.69 26.25, 75.68 0.86 M26.87 63.1 C37.6 51.74, 49.2 35.84, 80.66 1.22 M26.87 63.1 C47.27 40.05, 69.28 15.96, 80.66 1.22 M31.85 63.46 C45.87 46.38, 61.42 28.06, 85.65 1.58 M31.85 63.46 C50.11 42, 67.82 21.27, 85.65 1.58 M37.5 63.07 C52.24 43.09, 71.8 25.05, 91.29 1.18 M37.5 63.07 C48.72 50.89, 59.46 38.04, 91.29 1.18 M42.48 63.43 C56.35 48.13, 67.07 36.73, 96.28 1.54 M42.48 63.43 C56.28 47.38, 71.66 31.52, 96.28 1.54 M48.13 63.04 C67.32 42.24, 84.13 18.74, 101.92 1.15 M48.13 63.04 C59.52 48.77, 73.06 35.26, 101.92 1.15 M53.11 63.4 C71.6 41.03, 91.17 19.84, 106.91 1.51 M53.11 63.4 C69.22 45.82, 84.19 28.6, 106.91 1.51 M58.76 63 C73.97 47.99, 87.07 32.26, 112.55 1.11 M58.76 63 C78.66 38.22, 100.14 14.55, 112.55 1.11 M63.74 63.36 C80.13 46.74, 96.7 29.11, 118.85 -0.03 M63.74 63.36 C81.12 43.29, 99.03 22.5, 118.85 -0.03 M69.39 62.97 C91.91 39.92, 111.24 17.31, 123.18 1.08 M69.39 62.97 C85.06 46.05, 100.46 28.51, 123.18 1.08 M74.37 63.33 C89.15 47.26, 100.83 32.82, 127.51 2.2 M74.37 63.33 C84.84 48.97, 97.86 36.41, 127.51 2.2 M80.02 62.93 C99.7 41.8, 118.74 18.83, 130.53 4.82 M80.02 62.93 C98.35 40.69, 118.81 17.76, 130.53 4.82 M85 63.29 C99.98 46.49, 115.56 25.38, 133.55 7.44 M85 63.29 C100.61 43.58, 117.91 26.12, 133.55 7.44 M90.65 62.9 C102.52 47.86, 117.46 33.46, 134.6 12.33 M90.65 62.9 C98.82 53.39, 109.24 42.73, 134.6 12.33 M95.63 63.26 C108.63 49.23, 121.01 30.73, 134.34 18.73 M95.63 63.26 C108.4 49.38, 120.6 34.51, 134.34 18.73 M101.28 62.86 C113.04 50.24, 121.44 36.53, 134.74 24.37 M101.28 62.86 C112.36 48.92, 125.21 35.5, 134.74 24.37 M106.26 63.22 C117.8 50.7, 126.54 38.32, 134.47 30.77 M106.26 63.22 C118.24 49.91, 128.25 38.36, 134.47 30.77 M111.91 62.83 C119.03 56.03, 124.19 52.18, 134.87 36.41 M111.91 62.83 C117.07 56.15, 122.88 49.27, 134.87 36.41 M116.89 63.19 C120.31 55.99, 125.7 50.74, 134.61 42.81 M116.89 63.19 C120.73 58.73, 125.5 53.54, 134.61 42.81 M121.22 64.3 C127.01 58.03, 131.51 54.47, 135.66 47.7 M121.22 64.3 C124.13 60.94, 128.35 56.23, 135.66 47.7" stroke="#a5d8ff" stroke-width="0.5" fill="none"></path><path d="M15.66 0 M15.66 0 C36.63 -0.53, 59.21 -2.34, 118.6 0 M15.66 0 C39.38 1.21, 63.59 1.21, 118.6 0 M118.6 0 C129.78 -0.39, 136.04 5.25, 134.26 15.66 M118.6 0 C130.49 -0.2, 132.2 4.36, 134.26 15.66 M134.26 15.66 C134.84 26.05, 132.69 34.83, 134.26 46.99 M134.26 15.66 C134.8 26.18, 134.64 36.04, 134.26 46.99 M134.26 46.99 C135.02 56.09, 130.04 60.85, 118.6 62.65 M134.26 46.99 C132.1 58.64, 127.82 64.2, 118.6 62.65 M118.6 62.65 C93.94 61.64, 70.16 64.12, 15.66 62.65 M118.6 62.65 C82.08 61.98, 45.2 61.05, 15.66 62.65 M15.66 62.65 C6.66 63.65, 1.4 56.91, 0 46.99 M15.66 62.65 C4.68 64.47, -0.6 56.57, 0 46.99 M0 46.99 C-0.2 40.13, -1.8 33.56, 0 15.66 M0 46.99 C1.01 38.59, -0.08 28.33, 0 15.66 M0 15.66 C0.09 4.29, 5.19 -0.99, 15.66 0 M0 15.66 C-0.18 5.89, 4.38 -0.59, 15.66 0" stroke="#1971c2" stroke-width="1" fill="none"></path></g><g transform="translate(63.958246000290046 315.89943404386435) rotate(0 40.43333435058594 12.5)"><text x="40.43333435058594" y="0" font-family="Virgil, Segoe UI Emoji" font-size="20px" fill="#1971c2" text-anchor="middle" style="white-space: pre;" direction="ltr" dominant-baseline="text-before-edge">Manager</text></g><g stroke-linecap="round" transform="translate(10 584.4115936430669) rotate(0 94.3915803508761 31.326457728929427)"><path d="M2.32 5.99 C2.32 5.99, 2.32 5.99, 2.32 5.99 M2.32 5.99 C2.32 5.99, 2.32 5.99, 2.32 5.99 M1.4 13.14 C2.63 11.32, 4.09 9.92, 8.62 4.84 M1.4 13.14 C2.98 11.48, 4.66 9.44, 8.62 4.84 M1.79 18.78 C6.29 15.6, 10.21 10.67, 16.88 1.43 M1.79 18.78 C8.43 11.38, 13.13 5.22, 16.88 1.43 M1.53 25.18 C7.8 18.31, 15.56 11.95, 22.53 1.03 M1.53 25.18 C10.09 15.77, 18.46 6.49, 22.53 1.03 M1.27 31.58 C7.84 23.82, 17.68 13.1, 27.51 1.39 M1.27 31.58 C11.54 20.36, 21.99 9.06, 27.51 1.39 M1.66 37.22 C13.5 24.52, 25.16 8.88, 33.16 1 M1.66 37.22 C13.64 24.01, 22.74 13.25, 33.16 1 M1.4 43.62 C11.91 33.04, 21.61 21.86, 38.14 1.36 M1.4 43.62 C11.02 30.36, 22.17 19.05, 38.14 1.36 M0.49 50.77 C13.12 34.96, 27.71 19.67, 43.13 1.72 M0.49 50.77 C12.32 37.33, 22.01 25.56, 43.13 1.72 M2.19 54.91 C20.15 34.83, 35.4 17.82, 48.77 1.32 M2.19 54.91 C17.78 35.91, 34.82 19.13, 48.77 1.32 M3.9 59.04 C23.8 37.74, 41.77 15.84, 53.76 1.68 M3.9 59.04 C14.96 46.49, 26.48 33.41, 53.76 1.68 M7.57 60.91 C25.67 41.9, 42.24 19.46, 59.4 1.29 M7.57 60.91 C18.19 46.98, 29.82 34.74, 59.4 1.29 M10.59 63.53 C23.87 49.93, 35.4 33.35, 64.39 1.65 M10.59 63.53 C26.27 45.49, 42.04 25.62, 64.39 1.65 M16.24 63.14 C38.89 40.15, 58.89 15.3, 70.03 1.25 M16.24 63.14 C38.18 37.99, 59.21 13.57, 70.03 1.25 M21.22 63.5 C35.28 47.24, 45.32 32.91, 75.02 1.61 M21.22 63.5 C37.34 44.69, 53.72 27.12, 75.02 1.61 M26.87 63.1 C38 49.67, 50.46 35.16, 80.66 1.22 M26.87 63.1 C46.89 40.11, 67.44 18.17, 80.66 1.22 M31.85 63.46 C46.89 46.78, 59.12 31.8, 85.65 1.58 M31.85 63.46 C42.97 49.84, 55.65 37.02, 85.65 1.58 M36.84 63.82 C56.63 42.98, 74.34 21.8, 90.64 1.94 M36.84 63.82 C47.6 50.43, 60.1 37.51, 90.64 1.94 M42.48 63.43 C53.98 48.97, 69.84 35.34, 96.28 1.54 M42.48 63.43 C61.24 41.17, 80.61 17.18, 96.28 1.54 M47.47 63.79 C65.3 42.52, 85.55 18.5, 101.27 1.9 M47.47 63.79 C62.28 47.17, 74.6 32.59, 101.27 1.9 M53.11 63.4 C70.51 45.82, 87.01 25.27, 106.91 1.51 M53.11 63.4 C67.11 45.62, 83.33 29.49, 106.91 1.51 M58.1 63.76 C74.77 45.05, 90.57 28.23, 111.9 1.87 M58.1 63.76 C78.4 39.45, 99.69 14.96, 111.9 1.87 M63.74 63.36 C76.54 47.19, 89.17 32.94, 117.54 1.48 M63.74 63.36 C84.34 38.98, 105.79 14.83, 117.54 1.48 M68.73 63.72 C88.83 43.19, 108.08 21.75, 122.53 1.84 M68.73 63.72 C89.51 40.19, 110.23 15.08, 122.53 1.84 M73.72 64.08 C83.93 50.11, 95.3 37.42, 127.51 2.2 M73.72 64.08 C93.66 42.49, 112.07 20.86, 127.51 2.2 M79.36 63.69 C93.19 48.18, 106.9 31.36, 133.16 1.8 M79.36 63.69 C98.38 42.67, 117.23 19.94, 133.16 1.8 M84.35 64.05 C103.67 38.46, 123.89 15.59, 138.14 2.16 M84.35 64.05 C101.02 45.83, 118.39 26.54, 138.14 2.16 M89.99 63.65 C104.96 45.26, 119.92 30.51, 143.79 1.77 M89.99 63.65 C103.5 46.71, 117.43 32.16, 143.79 1.77 M94.98 64.01 C116.14 42.41, 133.64 16.99, 148.77 2.13 M94.98 64.01 C106.86 48.35, 120.8 34.73, 148.77 2.13 M100.62 63.62 C118.92 42.02, 137.92 21.89, 154.42 1.73 M100.62 63.62 C114.03 49.96, 126.4 34.76, 154.42 1.73 M105.61 63.98 C125.58 38.54, 147.85 15.5, 159.4 2.09 M105.61 63.98 C119.17 50.24, 130.41 34.74, 159.4 2.09 M111.25 63.58 C123.56 48.56, 137.63 35.2, 164.39 2.45 M111.25 63.58 C128.15 45.61, 144.54 25.6, 164.39 2.45 M116.24 63.94 C130.34 48.17, 141.46 35.7, 170.03 2.06 M116.24 63.94 C136.22 41.65, 156.65 17.69, 170.03 2.06 M121.22 64.3 C141.54 39.48, 160.58 16.95, 175.02 2.42 M121.22 64.3 C133.67 51.25, 145.34 37.32, 175.02 2.42 M126.87 63.91 C145.27 38.72, 166.62 18.17, 180.66 2.02 M126.87 63.91 C140.66 48.4, 156.54 31.1, 180.66 2.02 M131.85 64.27 C149.8 46.36, 162.61 25.97, 184.34 3.89 M131.85 64.27 C153.03 39.38, 174.23 17.09, 184.34 3.89 M137.5 63.87 C152.4 46.57, 162.9 32.8, 187.36 6.52 M137.5 63.87 C153.89 44.36, 169.75 26.32, 187.36 6.52 M142.48 64.23 C160.88 43.54, 179.61 20.82, 189.72 9.9 M142.48 64.23 C152.94 52.79, 162.01 41.42, 189.72 9.9 M148.13 63.84 C165.52 44.18, 180.12 26.4, 191.43 14.03 M148.13 63.84 C160.1 50.76, 169.4 38.57, 191.43 14.03 M153.11 64.2 C165.19 53.27, 172.85 41.56, 191.17 20.43 M153.11 64.2 C164.66 49.63, 176.63 35.8, 191.17 20.43 M158.1 64.56 C171.12 52.25, 182.56 34.73, 190.9 26.82 M158.1 64.56 C166.48 57.2, 173.89 48.07, 190.9 26.82 M163.75 64.17 C169.81 56.26, 175.4 51.02, 190.64 33.22 M163.75 64.17 C172 53.35, 181.55 45.68, 190.64 33.22 M168.73 64.53 C175.82 54.02, 184.55 46.46, 191.04 38.87 M168.73 64.53 C174.2 56.64, 179.65 51.16, 191.04 38.87 M174.38 64.13 C177.35 59.62, 184.75 55.96, 190.78 45.26 M174.38 64.13 C177.88 59.19, 182.46 53.6, 190.78 45.26" stroke="#d0bfff" stroke-width="0.5" fill="none"></path><path d="M15.66 0 M15.66 0 C58.59 0.51, 98.93 -1.1, 173.12 0 M15.66 0 C51.14 -1.6, 87 -1.63, 173.12 0 M173.12 0 C185.06 1.59, 187.38 4.78, 188.78 15.66 M173.12 0 C183.27 2.09, 187.12 7.18, 188.78 15.66 M188.78 15.66 C190.71 25.05, 190.62 38.92, 188.78 46.99 M188.78 15.66 C188.46 23.82, 189.34 33.32, 188.78 46.99 M188.78 46.99 C190.12 57.82, 183.16 62.57, 173.12 62.65 M188.78 46.99 C188.84 56.6, 183.12 63.05, 173.12 62.65 M173.12 62.65 C115.27 62.89, 60.57 64.1, 15.66 62.65 M173.12 62.65 C127.86 63.23, 80.71 61.93, 15.66 62.65 M15.66 62.65 C6.64 60.75, 1.98 58.5, 0 46.99 M15.66 62.65 C6.44 60.94, 0.97 59.6, 0 46.99 M0 46.99 C0.6 35.81, 1.36 22.89, 0 15.66 M0 46.99 C0.24 37.02, 0.57 27.98, 0 15.66 M0 15.66 C-1.62 6.04, 4.24 -0.45, 15.66 0 M0 15.66 C0.02 5.44, 6.08 -1.35, 15.66 0" stroke="#6741d9" stroke-width="1" fill="none"></path></g><g transform="translate(45.51658035087621 603.2380513719963) rotate(0 58.875 12.5)"><text x="58.875" y="0" font-family="Virgil, Segoe UI Emoji" font-size="20px" fill="#6741d9" text-anchor="middle" style="white-space: pre;" direction="ltr" dominant-baseline="text-before-edge">DataSource</text></g><g stroke-linecap="round"><g transform="translate(104.9139571300334 82.64305610612962) rotate(0 -0.5223767791572982 30.0711299623825)"><path d="M-1.06 -0.14 C-1.43 10.02, -1.78 50.11, -1.63 60.38 M0.59 -1.26 C0.52 9.08, 0.74 50.72, 0.52 61.4" stroke="#1e1e1e" stroke-width="1" fill="none"></path></g><g transform="translate(104.9139571300334 82.64305610612962) rotate(0 -0.5223767791572982 30.0711299623825)"><path d="M-9.8 31.36 C-7.78 43.81, -2.44 51.84, 2.03 60.03 M-9.58 33.38 C-5.01 42.88, -1.18 52.95, 1.16 60.41" stroke="#1e1e1e" stroke-width="1" fill="none"></path></g><g transform="translate(104.9139571300334 82.64305610612962) rotate(0 -0.5223767791572982 30.0711299623825)"><path d="M10.72 31.48 C5.52 43.71, 3.64 51.7, 2.03 60.03 M10.94 33.51 C7.99 42.83, 4.3 52.85, 1.16 60.41" stroke="#1e1e1e" stroke-width="1" fill="none"></path></g></g><mask></mask><g stroke-linecap="round"><g transform="translate(104.97730044100967 225.37659190150907) rotate(0 -0.5857200901335773 30.874082324470493)"><path d="M0.03 -0.11 C0.01 10.11, 0.2 51.53, 0.24 61.91 M-1.41 -1.22 C-1.54 9.07, -0.41 52.24, -0.15 62.97" stroke="#1e1e1e" stroke-width="1" fill="none"></path></g><g transform="translate(104.97730044100967 225.37659190150907) rotate(0 -0.5857200901335773 30.874082324470493)"><path d="M-11.29 36.79 C-8.83 46.23, -4.75 53.34, 1.63 63.98 M-11.5 34.67 C-6.97 43.83, -4.65 51.37, -0.26 62.4" stroke="#1e1e1e" stroke-width="1" fill="none"></path></g><g transform="translate(104.97730044100967 225.37659190150907) rotate(0 -0.5857200901335773 30.874082324470493)"><path d="M9.22 36.28 C4.84 45.9, 2.05 53.18, 1.63 63.98 M9.02 34.16 C7.24 43.35, 3.25 51.04, -0.26 62.4" stroke="#1e1e1e" stroke-width="1" fill="none"></path></g></g><mask></mask><g stroke-linecap="round"><g transform="translate(103.25871046415023 369.08832456670416) rotate(0 1.1328698867260982 31.460249167590916)"><path d="M1.18 -0.63 C1.64 9.93, 1.71 53.14, 1.93 63.55 M0.33 1.65 C0.77 11.87, 0.97 51.72, 1.31 61.9" stroke="#1e1e1e" stroke-width="1" fill="none"></path></g><g transform="translate(103.25871046415023 369.08832456670416) rotate(0 1.1328698867260982 31.460249167590916)"><path d="M-10.51 34.93 C-5.48 42.15, -5.9 45.79, 1.7 62.87 M-9.09 33.23 C-5.22 44.14, -1.42 55.66, 0.51 61.76" stroke="#1e1e1e" stroke-width="1" fill="none"></path></g><g transform="translate(103.25871046415023 369.08832456670416) rotate(0 1.1328698867260982 31.460249167590916)"><path d="M10.01 34.56 C10.38 42.06, 5.29 45.8, 1.7 62.87 M11.43 32.86 C7.38 43.71, 3.24 55.37, 0.51 61.76" stroke="#1e1e1e" stroke-width="1" fill="none"></path></g></g><mask></mask><g stroke-linecap="round" transform="translate(37.260540716128844 441.3712556957964) rotate(0 67.13103963474725 31.326457728929427)"><path d="M2.32 5.99 C2.32 5.99, 2.32 5.99, 2.32 5.99 M2.32 5.99 C2.32 5.99, 2.32 5.99, 2.32 5.99 M1.4 13.14 C4.59 10, 6.26 7.85, 8.62 4.84 M1.4 13.14 C3.75 11.48, 5.56 8.63, 8.62 4.84 M1.79 18.78 C6.81 12.63, 15.06 5.32, 16.88 1.43 M1.79 18.78 C4.81 14.59, 10.16 10.3, 16.88 1.43 M1.53 25.18 C7.53 17.19, 17.29 7.07, 22.53 1.03 M1.53 25.18 C8.06 18.75, 11.92 12.49, 22.53 1.03 M1.27 31.58 C9.28 19.89, 20 11.99, 27.51 1.39 M1.27 31.58 C8.82 22.68, 16.56 14.9, 27.51 1.39 M1.66 37.22 C12.73 24.74, 22.59 13.39, 33.16 1 M1.66 37.22 C13.16 22.2, 26.4 8.26, 33.16 1 M1.4 43.62 C11.26 32.4, 22.9 21.02, 38.14 1.36 M1.4 43.62 C11.78 32.5, 21.82 20.76, 38.14 1.36 M0.49 50.77 C14.28 36.69, 28.34 20.4, 43.79 0.96 M0.49 50.77 C11.88 39.13, 22.07 26.93, 43.79 0.96 M2.19 54.91 C15.17 42.17, 25.27 27.35, 48.77 1.32 M2.19 54.91 C13.25 42.23, 23.75 30.77, 48.77 1.32 M4.56 58.29 C17.21 42.6, 31.41 28.4, 54.42 0.93 M4.56 58.29 C23.54 37.71, 41.27 15.75, 54.42 0.93 M6.92 61.66 C29.02 39.24, 49.44 15.83, 59.4 1.29 M6.92 61.66 C18.64 48.42, 32.28 33.55, 59.4 1.29 M11.9 62.02 C31.7 37.24, 53.58 13.62, 65.05 0.89 M11.9 62.02 C31.94 39.95, 49.29 18.98, 65.05 0.89 M16.24 63.14 C30.63 49.5, 42.16 33.11, 70.03 1.25 M16.24 63.14 C31.78 45.06, 46.92 26.06, 70.03 1.25 M21.22 63.5 C34.79 46.06, 47.63 31.04, 75.68 0.86 M21.22 63.5 C33.1 49.06, 46.28 34.16, 75.68 0.86 M26.87 63.1 C44.45 44.51, 62.36 22.62, 80.66 1.22 M26.87 63.1 C41.99 44.44, 58.92 26.31, 80.66 1.22 M31.85 63.46 C41.54 50.23, 53.48 36.33, 85.65 1.58 M31.85 63.46 C46.17 45.68, 61.88 30.07, 85.65 1.58 M37.5 63.07 C52.33 46.51, 65.33 29.92, 91.29 1.18 M37.5 63.07 C51.88 46.41, 68.58 26.98, 91.29 1.18 M42.48 63.43 C61.75 42.59, 77.62 23.47, 96.28 1.54 M42.48 63.43 C58.74 46.33, 73.62 29.77, 96.28 1.54 M48.13 63.04 C65.32 44.97, 83.67 23.5, 101.92 1.15 M48.13 63.04 C68.78 39.09, 87.36 18.05, 101.92 1.15 M53.11 63.4 C73.48 42, 94.22 15.2, 106.91 1.51 M53.11 63.4 C65.83 47.63, 80.53 30.79, 106.91 1.51 M58.76 63 C73.86 46.63, 85.65 32.07, 112.55 1.11 M58.76 63 C69.45 49.38, 80.06 37.98, 112.55 1.11 M63.74 63.36 C75.18 47.92, 86.71 37.3, 118.85 -0.03 M63.74 63.36 C79.69 45.34, 96.83 26.85, 118.85 -0.03 M69.39 62.97 C82.34 46.73, 95.34 32.36, 123.18 1.08 M69.39 62.97 C87.86 42.82, 106.49 21.09, 123.18 1.08 M74.37 63.33 C90.64 47.07, 105.87 28.51, 127.51 2.2 M74.37 63.33 C92.29 43.41, 110.05 24.04, 127.51 2.2 M80.02 62.93 C100.97 41.75, 119.15 17.94, 130.53 4.82 M80.02 62.93 C90.74 48.72, 102.06 35.12, 130.53 4.82 M85 63.29 C97.83 48.9, 111.19 33.49, 133.55 7.44 M85 63.29 C102.5 40.99, 121.3 19.98, 133.55 7.44 M90.65 62.9 C107.51 43.28, 123.36 24.87, 134.6 12.33 M90.65 62.9 C101.01 50.49, 112.76 38.49, 134.6 12.33 M95.63 63.26 C109.83 45.48, 125.9 30.8, 134.34 18.73 M95.63 63.26 C106.63 49.05, 119.12 37.46, 134.34 18.73 M101.28 62.86 C109.31 51.97, 116.84 45.69, 134.74 24.37 M101.28 62.86 C110.86 52.29, 120.94 40.97, 134.74 24.37 M106.26 63.22 C116.47 50.46, 128.44 37.49, 134.47 30.77 M106.26 63.22 C113.34 56.61, 119.94 49.08, 134.47 30.77 M111.91 62.83 C115.54 55.91, 122.37 51.79, 134.87 36.41 M111.91 62.83 C120.8 53.4, 127.84 44.09, 134.87 36.41 M116.89 63.19 C123.3 56.58, 131.14 48.93, 134.61 42.81 M116.89 63.19 C122.74 57.03, 127.79 50.77, 134.61 42.81 M121.22 64.3 C123.54 58.96, 128.79 54.1, 135.66 47.7 M121.22 64.3 C126.01 59.11, 131.38 53.31, 135.66 47.7" stroke="#ffec99" stroke-width="0.5" fill="none"></path><path d="M15.66 0 M15.66 0 C36.97 2.34, 60.46 0.2, 118.6 0 M15.66 0 C44.69 -0.37, 75.13 -0.43, 118.6 0 M118.6 0 C129.8 1.58, 135.21 6.46, 134.26 15.66 M118.6 0 C127.67 1.85, 134.01 3.94, 134.26 15.66 M134.26 15.66 C135.48 25.39, 135.57 31.28, 134.26 46.99 M134.26 15.66 C133.9 27.88, 134.71 40.44, 134.26 46.99 M134.26 46.99 C133.39 55.59, 129.82 61.99, 118.6 62.65 M134.26 46.99 C136.21 58.45, 129.61 62.27, 118.6 62.65 M118.6 62.65 C88.96 62.28, 61.29 63.27, 15.66 62.65 M118.6 62.65 C96.89 62.15, 75.54 61.64, 15.66 62.65 M15.66 62.65 C4.98 63.13, 1 58.69, 0 46.99 M15.66 62.65 C7.41 60.98, 0.24 56.19, 0 46.99 M0 46.99 C0.98 35.42, 0.61 24.4, 0 15.66 M0 46.99 C-0.87 37.55, -0.53 28.53, 0 15.66 M0 15.66 C0.46 5.73, 4.14 0.56, 15.66 0 M0 15.66 C-0.49 4.54, 4.33 0.46, 15.66 0" stroke="#f08c00" stroke-width="1" fill="none"></path></g><g transform="translate(53.85824752616895 460.1977134247258) rotate(0 50.53333282470703 12.5)"><text x="50.53333282470703" y="0" font-family="Virgil, Segoe UI Emoji" font-size="20px" fill="#f08c00" text-anchor="middle" style="white-space: pre;" direction="ltr" dominant-baseline="text-before-edge">Repository</text></g><g stroke-linecap="round"><g transform="translate(102.77615166140868 511.9860892055787) rotate(0 1.6154286894674215 32.23179319278239)"><path d="M0.78 1.19 C1.52 11.45, 3.08 52.05, 3.5 62.18 M-0.27 0.77 C0.47 11.17, 2.49 53.3, 3.02 63.7" stroke="#1e1e1e" stroke-width="1" fill="none"></path></g><g transform="translate(102.77615166140868 511.9860892055787) rotate(0 1.6154286894674215 32.23179319278239)"><path d="M-6.64 37.53 C-5.95 43.28, -3.72 49.22, 1.64 65.02 M-8.58 36.37 C-4.58 46.94, -0.17 55.92, 3.02 63.46" stroke="#1e1e1e" stroke-width="1" fill="none"></path></g><g transform="translate(102.77615166140868 511.9860892055787) rotate(0 1.6154286894674215 32.23179319278239)"><path d="M13.85 36.51 C9.99 42.63, 7.65 48.8, 1.64 65.02 M11.92 35.35 C8.25 46.17, 5 55.53, 3.02 63.46" stroke="#1e1e1e" stroke-width="1" fill="none"></path></g></g><mask></mask></svg>